<svg width="72" height="88" viewBox="0 0 72 88" fill="none" xmlns="http://www.w3.org/2000/svg">
<path fill-rule="evenodd" clip-rule="evenodd" d="M0.948647 0C5.40162 2.59725 11.2622 4.42741 18.2821 4.49075C25.4778 4.57397 31.5806 3.16779 35.9862 0.376083C40.4251 3.15339 46.5972 4.60198 53.7233 4.49075C60.6127 4.39993 66.6802 2.59725 71.0641 0.034808C71.1476 10.3801 70.9045 20.2457 70.9045 30.5423C70.9045 40.7698 71.4549 51.3867 68.838 59.206C67.5644 63.0417 65.6441 66.2581 63.4797 69.2728C61.3501 72.2589 58.706 74.8771 55.8673 77.035C52.9161 79.2841 49.506 80.8782 46.0413 82.6249C43.0702 84.1222 40.0845 85.6679 37.1898 87.2415C36.7864 87.4645 36.3122 87.6106 36.0205 88C34.4607 86.949 32.7638 86.106 31.0794 85.2224C29.3825 84.353 27.6699 83.4614 25.9719 82.5901C24.2185 81.6927 22.4643 80.9269 20.8017 80.0423C19.1383 79.1653 17.6281 78.1423 16.1457 76.9936C10.321 72.5445 5.8267 66.78 3.16114 59.1073C1.79802 55.1465 1.40773 50.6147 1.17152 45.7055C0.948647 40.8666 1.06715 35.7153 1.06715 30.6959C1.06715 20.4686 0.922227 10.4152 0.922227 0.11149C0.914379 0.0560068 0.914379 0 0.948647 0ZM34.2247 3.67603C28.1018 6.37692 18.4563 7.16468 10.636 5.58419C8.1862 5.08929 5.95958 4.42768 4.02516 3.53026C3.7675 3.4049 3.48184 3.195 3.1614 3.22327C3.07142 12.7405 3.31469 22.6126 3.31469 31.7815C3.31469 36.5512 3.08528 41.4243 3.27284 45.9635C3.48184 50.482 3.99063 54.7702 5.22819 58.4598C6.44692 62.0801 8.07529 65.1924 10.107 68.0265C13.1412 72.2728 16.8151 75.7963 21.4633 78.3158C23.0296 79.1512 24.6776 79.8963 26.3481 80.6689C29.6048 82.1939 32.8613 83.7875 36.0977 85.3687C39.3246 83.7602 42.6033 82.2355 45.8185 80.6689C47.4748 79.8686 49.1372 79.186 50.6895 78.3435C53.779 76.7008 56.4095 74.494 58.7479 72.015C62.2411 68.3325 65.0937 63.7514 66.8207 58.425C69.2416 50.9408 68.7402 41.4649 68.7402 31.8851C68.7402 22.2365 68.7687 12.7329 68.838 3.22275C68.5458 3.22275 68.2599 3.40411 67.9824 3.52974C65.971 4.41381 63.8009 5.15158 61.3849 5.62476C55.6999 6.73154 48.7278 6.56457 43.3763 5.39523C40.6205 4.79617 38.1789 3.87023 36.0208 2.77129C35.5756 3.12565 34.9148 3.36957 34.2247 3.67603Z" fill="#6A005F"/>
<path fill-rule="evenodd" clip-rule="evenodd" d="M36.7788 6.67711C39.7915 7.00425 42.0545 8.5782 43.4176 10.8124C43.5986 11.1045 43.8981 11.5782 43.8699 11.8083C43.828 12.0511 43.6467 12.2464 43.4176 12.2325C43.1181 12.2186 43.0346 11.8083 42.8115 11.4393C41.6647 9.42694 39.8067 8.04142 37.1479 7.57452C37.2735 8.18772 37.5515 8.77946 37.7885 9.41359C38.0114 10.0399 38.2479 10.6871 38.4629 11.2992C38.5678 11.411 38.4493 11.5568 38.4629 11.7104C38.9432 11.6756 39.4797 11.6965 39.4025 12.2322C39.2984 12.9221 37.2392 12.3997 36.4735 12.5733C36.3898 13.1024 36.4597 13.8057 36.4377 14.3977C36.8565 14.6479 38.8456 14.1883 39.2492 14.4806C39.3677 14.5571 39.4169 14.8015 39.4025 14.9266C39.2911 15.6788 37.2735 15.0661 36.4735 15.2603C36.3556 15.8873 36.6457 16.7643 36.021 16.8062C35.4225 16.8402 35.5902 16.0124 35.576 15.2956C34.8234 15.0242 32.7642 15.6929 32.6107 14.9685C32.4025 13.9378 34.818 14.6827 35.5334 14.3974C35.6043 13.8892 35.6043 13.1161 35.5334 12.6013C34.8658 12.35 32.7501 12.9493 32.6107 12.2671C32.5003 11.7373 33.0287 11.6546 33.5155 11.7101C33.6209 11.6125 33.4606 11.4874 33.5155 11.3346C34.0026 10.1223 34.3999 8.82107 34.9079 7.6164C31.6923 8.05477 29.661 10.0045 28.6445 12.747C28.9932 12.7329 29.5219 12.5311 30.2167 12.4128C30.9549 12.2877 32.4522 11.9465 32.0135 12.9773C31.4084 13.1718 30.7189 13.1509 30.0924 13.2836C29.48 13.4013 28.9234 13.617 28.4086 13.8054C28.311 13.9938 28.283 14.2579 28.255 14.5222C28.7981 14.4395 29.3683 14.2027 30.0921 14.07C30.613 13.9794 32.1668 13.6047 32.0132 14.4456C31.9431 14.8148 31.4982 14.7669 31.15 14.7868C30.1473 14.8502 28.8886 15.1771 28.255 15.5322C28.2273 15.6646 28.255 15.964 28.2961 16.1307C28.9093 15.9706 29.3542 15.8384 30.134 15.7128C30.6205 15.6505 31.7898 15.3234 31.9013 15.8659C32.0616 16.6461 30.6906 16.4228 30.0301 16.5411C29.3124 16.6743 28.8813 16.8758 28.4504 17.0214C28.61 17.3912 28.6168 17.8643 28.255 17.9264C27.5037 18.0939 27.42 16.3257 27.3923 15.6089C27.3643 14.5089 27.5171 13.534 27.7402 12.7889C28.7293 9.3916 31.3729 7.21912 35.2412 6.64178C35.5201 6.23089 35.5201 5.40936 36.0636 5.46459C36.5434 5.51405 36.4942 6.3149 36.7788 6.67711ZM36.5217 8.43844C36.3966 8.11837 36.2716 7.40781 35.9095 7.47062C35.2765 8.77946 34.8517 10.2971 34.2948 11.7104C34.6152 11.725 35.2205 11.6965 35.5329 11.7104C35.2967 10.4502 36.7301 10.3741 36.4374 11.7104C36.7587 11.7104 37.3836 11.7104 37.7182 11.7104C37.3556 10.7426 36.8978 9.49001 36.5217 8.43844Z" fill="#6A005F"/>
<path fill-rule="evenodd" clip-rule="evenodd" d="M18.325 9.93521C18.5118 10.0812 18.2625 10.3102 18.3585 10.4568C18.9023 10.3524 19.5767 10.7703 19.6327 11.0629C19.7093 11.439 19.2916 11.8426 19.4033 12.3362C20.322 12.9219 20.5446 14.203 21.5886 14.6754C22.0406 15.5322 22.3396 16.8272 22.145 18.0104C21.9922 18.9089 21.1012 19.006 21.2822 20.1834C21.366 20.6906 21.6715 21.7144 22.0333 21.8749C22.27 21.9796 22.591 21.8539 22.8266 22.0209C23.0145 22.2509 22.9242 22.7521 22.7848 22.968C22.061 23.1005 21.797 23.866 20.9066 23.5663C20.572 23.4415 19.9879 23.0578 19.821 22.7731C19.7091 22.5917 19.7232 22.3342 19.6324 22.1392C19.4449 21.7144 19.1103 21.4572 18.9162 21.1575C18.3737 21.325 16.7034 21.0397 16.9682 21.9162C17.0935 22.3067 18.415 22.1112 17.9839 23.1136C17.8306 23.4616 16.6896 23.9492 16.258 24.0474C16.1047 24.0746 15.8266 24.0952 15.729 24.0814C15.5896 24.068 15.4651 23.9356 15.2841 23.8929C14.921 23.8236 14.4347 23.9843 14.0455 23.8929C13.8082 23.8516 13.1542 23.3855 12.9173 23.1829C12.7645 23.0442 12.459 22.6679 12.403 22.5072C12.2288 22.0971 12.341 21.756 11.901 21.5684C11.7069 21.4846 11.4571 21.5192 11.2345 21.4566C10.8311 21.3593 10.399 21.0314 10.0728 21.2761C9.66234 21.7283 10.309 21.9233 10.5175 22.3206C10.7191 22.6961 10.5941 22.9751 10.6365 23.5179C10.5036 23.6982 10.2179 24.0254 9.88443 24.0811C9.43188 24.1649 8.81925 23.8236 8.18673 23.6707C7.77604 23.5661 7.15713 23.5661 7.07369 23.1486C7.01797 22.8835 7.28112 22.7304 7.33004 22.5072C7.40695 22.2088 7.24005 21.9717 7.44278 21.728C7.15739 21.2892 7.28139 20.6066 7.2534 19.8136C7.22645 18.9502 7.24005 18.3658 7.44278 17.7458C7.51864 17.5228 7.53251 17.2653 7.60235 17.1402C7.71405 16.8759 8.48625 16.2564 8.79884 16.096C9.508 15.6987 10.6909 15.3857 11.9447 15.567C12.2086 15.5948 12.4454 15.8175 12.6949 15.8662C13.1694 15.9502 13.8085 15.8175 14.3105 15.8662C14.4635 15.7756 14.5883 15.6788 14.6858 15.5322C14.7277 14.7178 14.2683 14.3974 14.0457 13.8405C14.1496 13.0182 13.9063 12.086 14.1985 11.2987C14.2751 11.0763 14.644 10.4497 14.8394 10.2341C15.0262 10.0187 15.4235 9.71145 15.66 9.67036C16.0906 9.5942 16.8154 9.83733 17.2334 9.97682C17.4688 9.80959 17.9975 9.80959 18.325 9.93521ZM16.1049 11.6337C16.4798 11.7251 16.6203 11.2713 16.7872 11.0281C16.6896 10.8475 16.7448 10.506 16.4795 10.4989C16.5154 11.0349 16.2582 11.2786 16.1049 11.6337ZM14.7277 11.4738C14.7693 11.5293 14.8799 11.5222 14.9927 11.5222C15.0897 11.2993 15.1245 11.0012 15.2422 10.8125C14.915 10.7078 14.6994 11.2095 14.7277 11.4738ZM17.0854 11.5992C16.7448 11.8633 16.0903 12.1279 16.2996 12.6853C16.3273 12.6921 16.3694 12.6853 16.3694 12.7133C16.8002 12.5877 16.9198 12.1279 17.2332 11.8572C17.4971 11.6337 17.9842 11.488 17.9423 10.9797C17.5104 10.8193 17.3585 11.3697 17.0854 11.5992ZM17.0854 13.3529C17.0935 13.3679 17.1631 13.4296 17.1631 13.4506C17.3025 13.5408 17.3993 13.3679 17.5664 13.3529C17.8733 13.3257 18.0951 13.4995 18.2824 13.4995C18.4637 13.3257 18.3036 13.0054 18.0948 12.9779C17.8447 13.3802 16.9616 12.6497 17.0854 13.3529ZM19.4797 12.9779C19.2861 12.9567 19.2094 13.1724 19.2223 13.3118C19.2508 13.5691 19.7096 13.8546 19.9743 13.8408C19.8898 13.6811 19.6685 13.0054 19.4797 12.9779ZM16.2169 13.5408C15.9106 13.6599 15.7361 13.9384 15.6597 14.2797C15.9106 14.3836 15.9584 14.0284 16.1737 13.9941C16.4319 14.1323 16.4251 14.5296 16.7037 14.6272C16.7725 14.739 17.1065 14.5853 17.1207 14.739C17.1207 14.9408 16.8002 14.9408 16.5923 15.0454C16.3691 15.1564 15.9582 15.4835 15.6173 15.6932C15.0201 16.0337 14.2401 16.4796 15.1305 16.8764C15.2281 16.7997 15.1243 16.6113 15.1724 16.521C15.242 16.3404 15.9791 15.8178 16.0636 15.8036C16.2166 15.7759 16.3895 15.8874 16.5224 15.8664C16.9117 15.8178 17.0017 15.4414 17.3428 15.2959C17.5583 15.3454 17.7752 15.3862 18.0681 15.3796C18.4074 15.4974 18.2277 16.1457 18.623 16.214C18.8042 15.9643 18.6648 15.6152 18.8882 15.3796C18.8526 15.1357 18.6308 15.0724 18.658 14.7871C18.7208 14.6414 18.8882 14.6063 19.0342 14.5505C19.3889 14.8078 19.3193 15.4904 19.668 15.7479C19.9735 15.5605 20.0504 14.8785 19.8618 14.5505C19.6949 14.2797 19.1807 14.1752 19.0682 13.9664C18.1921 13.9729 17.5238 14.1886 16.856 14.3977C16.5923 14.1755 16.4798 13.785 16.2169 13.5408ZM20.5307 15.9504C20.8096 15.7903 20.656 15.2059 20.3507 15.1915C20.2173 15.4069 20.2173 15.9431 20.5307 15.9504ZM17.0019 16.2778C17.0854 16.4796 17.3993 16.4375 17.4547 16.6534C17.343 17.0714 17.6917 17.2805 17.7618 17.6359C17.5384 17.9557 17.1897 17.6631 17.0854 17.4474C16.9198 17.4752 16.8151 17.5592 16.8151 17.7466C17.6776 17.8015 17.2049 18.805 16.6689 18.9785C16.5075 19.0484 16.2857 18.9785 16.1049 19.0209C15.8965 19.0764 15.7003 19.3119 15.4716 19.3967C15.1164 19.5215 14.7894 19.4176 14.5741 19.5914C14.4632 20.0303 14.5182 20.5734 14.8391 20.5668C15.1588 20.5522 15.1444 19.9186 15.4716 19.8144C15.938 19.8905 15.8899 19.5213 16.146 19.4386C16.2857 19.3826 16.4458 19.4802 16.6281 19.4386C17.1484 19.2917 17.2876 18.617 17.6083 18.2271C18.4563 18.3318 18.6653 17.5932 18.6933 16.9944C18.2204 17.086 17.6504 17.148 17.5662 16.7372C17.524 16.4378 17.7958 16.3061 17.873 16.0206C17.6504 15.6364 17.0587 15.9366 17.0019 16.2778ZM10.0369 16.3956C9.86978 16.3956 9.90509 16.1936 9.70367 16.2423C9.73114 16.5275 9.46641 16.5275 9.39735 16.6877C9.43868 16.8903 9.70367 16.8903 9.77247 17.0711C10.365 17.057 10.5248 16.6251 11.0396 16.5417C10.9418 15.8458 10.4134 16.1664 10.0369 16.3956ZM11.8746 16.1313C11.7351 16.3467 11.8879 16.7089 12.0967 16.8068C12.4451 16.6534 12.3334 16.0682 11.8746 16.1313ZM13.8231 17.6631C13.983 17.4752 13.9058 16.9942 13.6282 16.9942C13.516 17.1478 13.4616 17.7466 13.8231 17.6631ZM7.78311 18.0528C8.0188 18.1855 8.57545 18.2268 8.75699 18.0107C8.62463 17.7529 8.62463 17.5312 8.64556 17.3012C8.26992 17.4474 7.90736 17.6419 7.78311 18.0528ZM14.0034 18.2271C14.3102 18.2823 14.9213 18.3595 14.9924 18.0531C14.8391 17.6631 13.9489 17.6838 14.0034 18.2271ZM9.77221 18.9445C9.6061 18.9583 9.67463 18.7414 9.50748 18.7565C9.28539 18.7628 9.28539 18.9923 9.08999 19.0209C9.01387 18.9923 8.96495 18.9374 8.82605 18.9445C8.74182 19.0209 8.61704 19.0622 8.64529 19.236C8.83939 19.1528 8.89615 19.1876 9.05572 19.2784C9.11798 19.208 9.09705 19.062 9.24406 19.062C9.21581 19.6186 8.87444 20.1968 8.23487 20.2517C8.17235 20.5516 7.9772 20.6985 7.78285 20.8581C7.62929 21.5469 7.82418 22.1813 8.49331 22.1813C8.54118 22.056 8.52627 21.861 8.53386 21.6804C8.3395 21.4988 8.1577 21.3109 8.23487 20.8581C8.3395 20.7673 8.47082 20.6985 8.68061 20.7053C8.96521 20.4404 9.21581 20.1198 9.39709 19.7304C9.27205 19.3114 9.70341 19.0203 9.8839 19.3614C9.8839 19.4721 9.76593 19.6681 9.95349 19.6605C10.107 19.6186 9.95349 19.5079 9.95349 19.3962C10.1416 19.1523 10.552 19.1386 10.67 18.8322C10.3851 18.3873 10.0793 18.8183 9.77221 18.9445ZM7.96308 19.633C8.17235 19.4592 8.24193 19.0484 8.11663 18.7565C7.74047 18.7563 7.67089 19.4802 7.96308 19.633ZM12.7723 19.7309C12.8003 19.8704 13.0847 19.8005 13.1825 19.7725C13.1825 19.7238 13.1964 19.689 13.2249 19.6608C13.1692 19.571 13.0567 19.5153 12.9531 19.4723C12.9947 19.6608 12.7585 19.571 12.7723 19.7309ZM15.9584 20.1837C15.8127 20.252 15.6597 20.3012 15.5899 20.448C15.5344 20.6987 15.6872 21.1515 15.4719 21.2345C15.1104 20.9767 14.8394 21.1716 14.6027 21.4294C14.4208 21.3944 14.3662 21.2203 14.0868 21.2766C14.0593 21.4017 13.9492 21.8613 14.1572 21.8751C14.3662 21.8335 14.0457 21.4852 14.3105 21.4852C14.3798 21.6665 14.5048 21.7783 14.6027 21.9165C14.5883 22.1955 14.4904 22.7592 14.644 22.9683C15.0897 22.8361 14.6644 21.8335 15.2145 21.7914C15.395 21.8963 15.3461 22.2371 15.3618 22.5079C15.5208 22.5784 15.7157 22.8223 15.9945 22.85C16.3001 22.8843 16.8491 22.7804 16.969 22.5506C16.773 22.397 16.4534 22.3899 16.3001 22.2093C16.2383 22.1675 16.2587 22.0138 16.2587 21.9165C15.8904 21.6665 15.7157 21.0397 15.8831 20.4828C15.9386 20.3012 16.3137 20.0439 15.9945 19.8416C15.938 19.9047 15.9655 20.0649 15.9584 20.1837ZM8.98012 22.3614C8.98012 22.397 8.98012 22.4315 8.98012 22.4666C9.31338 22.4315 9.39081 22.8359 9.66208 22.738C9.57811 22.4807 9.25767 22.2923 8.98012 22.3614Z" fill="#6A005F"/>
<path fill-rule="evenodd" clip-rule="evenodd" d="M62.6593 21.2765C62.2973 21.0399 61.8241 21.3734 61.4474 21.4571C60.9946 21.5689 60.5915 21.561 60.4034 21.9515C60.3197 22.1318 60.3621 22.3341 60.2925 22.5076C59.9859 23.2391 59.2765 23.4268 58.7191 23.8932C58.3432 23.9638 57.8982 23.817 57.4462 23.8932C57.1399 23.9494 56.9942 24.1449 56.5068 24.0476C55.8113 23.9217 54.857 23.4618 54.704 23.0716C54.405 22.321 55.2261 22.1954 55.72 21.986C55.8531 21.2344 55.3093 21.3527 54.6632 21.2765C54.3571 21.2344 54.0019 21.1161 53.8345 21.1577C53.667 21.2067 53.2095 21.7843 53.0552 22.1394C52.971 22.321 52.9851 22.5705 52.9016 22.7382C52.679 23.1834 51.8161 23.6642 51.3303 23.6293C50.7103 23.6087 50.6062 23.0578 49.9026 22.9683C49.743 22.6547 49.687 22.2095 49.9026 22.0211C50.0763 21.8751 50.5503 21.9518 50.7661 21.7913C51.0235 21.6107 51.6073 20.1137 51.4064 19.3966C51.2741 18.9373 50.6748 18.5333 50.5777 18.1645C50.5503 18.0255 50.5364 17.7115 50.5364 17.5165C50.5364 16.6115 50.5636 15.3799 51.1072 14.7109C51.3306 14.4259 51.7334 14.2799 52.0117 13.9943C52.5116 13.4508 52.5817 12.5735 53.3197 12.3859C53.2993 11.8632 53.1525 11.4955 53.0552 11.0629C53.3335 10.7216 53.626 10.3801 54.3289 10.4568C54.4468 10.2903 54.1819 10.0948 54.3631 9.93517C54.6629 9.8242 55.2128 9.79567 55.4069 9.97704C55.8034 9.80954 56.256 9.73967 56.6946 9.67057C57.4668 9.55202 57.905 10.3311 58.1909 10.8472C58.3991 11.2095 58.5802 11.4248 58.6437 12.0027C58.6701 12.2673 58.65 12.6083 58.6437 12.9496C58.6437 13.2485 58.678 13.6049 58.6437 13.8057C58.5111 14.5505 57.4389 15.3796 58.3858 15.8664C58.8802 15.8036 59.4575 15.9645 59.9857 15.8664C60.2642 15.8177 60.529 15.595 60.7024 15.5672C61.2669 15.4696 61.9491 15.5112 62.3938 15.5672C63.4933 15.7133 64.3562 16.4306 65.052 17.0711C65.0662 17.5094 65.3932 17.886 65.4693 18.3733C65.5802 19.1527 65.5522 20.3851 65.4345 21.1577C65.372 21.5471 65.2328 21.9164 65.3586 22.4668C65.4144 22.7167 65.6362 22.8636 65.6158 23.0719C65.5799 23.5668 64.9537 23.5668 64.4248 23.7128C63.4791 23.9709 62.4767 24.437 62.0592 23.4904C62.0799 22.9321 61.997 22.6547 62.2125 22.2789C62.4082 21.9164 62.9774 21.7913 62.6593 21.2765ZM56.6188 11.6337C56.6324 11.3898 56.3538 11.3411 56.284 11.1045C56.2144 10.903 56.3745 10.6313 56.1587 10.4568C55.6996 10.8192 56.0967 11.725 56.6188 11.6337ZM57.7044 11.5219C57.8438 11.5361 57.9401 11.5018 57.9958 11.439C57.9476 11.1116 57.815 10.8543 57.515 10.7703C57.4535 10.9797 57.6905 11.244 57.7044 11.5219ZM54.7401 10.9797C54.767 11.6128 55.3027 11.6478 55.6439 12.0027C55.9088 12.2882 55.9782 12.6646 56.3125 12.7133C56.6949 12.2532 55.9646 11.725 55.5672 11.5567C55.3943 11.2992 55.185 10.8611 54.7401 10.9797ZM53.5012 13.2424C53.5012 13.1514 53.361 12.9567 53.2098 12.9779C53.0411 13.0053 52.7486 13.7499 52.7486 13.841C53.0275 13.8617 53.5153 13.4856 53.5012 13.2424ZM55.0736 13.1307C54.8999 13.1514 54.698 12.9498 54.5585 12.9779C54.3911 13.0187 54.1968 13.4445 54.4748 13.4994C54.6425 13.3955 55.2549 13.2561 55.4913 13.4994C55.7202 13.3529 55.6096 13.0956 55.4074 12.9779C55.2405 12.9708 55.2612 13.1024 55.0736 13.1307ZM56.5479 13.5408C56.1736 13.7088 56.1589 14.2239 55.7969 14.3976C55.1712 14.1472 54.4748 13.9797 53.6121 13.9663C53.5012 14.216 52.8881 14.3283 52.7907 14.6756C52.6793 15.0307 52.7907 15.5112 52.971 15.7481C53.4175 15.5534 53.4583 13.98 54.0709 14.8504C54.0157 15.0726 53.8481 15.1914 53.7986 15.4207C54.05 15.5882 53.9116 15.9504 54.0299 16.2142C54.489 16.2142 54.2862 15.5672 54.5941 15.4207C54.8363 15.3657 55.1432 15.3657 55.3789 15.2959C55.7401 15.5531 56.019 16.0334 56.6463 15.8036C56.9803 16.1456 57.6065 16.2778 57.5579 16.8763C57.8438 16.8763 58.0238 16.5699 57.9958 16.3956C57.9678 16.0407 57.2092 15.7478 56.8396 15.5324C56.6245 15.4005 56.4503 15.2192 56.2418 15.1142C55.991 14.9962 55.6439 15.0103 55.602 14.7389C55.6297 14.6136 55.8531 14.6829 55.9782 14.6756C56.2562 14.5434 56.2562 14.1194 56.5476 13.9941C56.743 14.0284 56.833 14.3626 57.0287 14.2796C57.036 14.0216 56.7993 13.6811 56.5479 13.5408ZM52.012 15.7481C52.2765 16.2142 52.5681 15.5395 52.3811 15.1914C52.0811 15.2061 52.0533 15.4976 52.012 15.7481ZM54.8238 16.0203C54.9274 16.2778 55.1296 16.4377 55.1502 16.7649C54.9902 17.1823 54.3773 17.0085 53.988 17.0219C54.0783 17.5513 54.1824 18.3665 55.0736 18.199C55.3658 18.6513 55.5884 19.1527 56.0611 19.4383C56.7153 19.1875 56.6604 19.8416 57.2168 19.8141C57.55 19.9114 57.5364 20.5448 57.8503 20.5665C58.2192 20.5937 58.2396 19.9182 58.1213 19.5492C57.8012 19.4173 57.5152 19.5291 57.1744 19.3964C57.0154 19.3336 56.8963 19.1179 56.7294 19.0619C56.4783 18.9782 56.2084 19.076 55.9784 18.9782C55.658 18.8531 55.4071 18.3663 55.4071 17.969C55.484 17.7887 55.8246 17.8863 55.8673 17.6631C55.8531 17.5236 55.7556 17.4751 55.6439 17.4474C55.5052 17.6631 55.1361 17.969 54.9274 17.5932C55.0736 17.2804 55.3245 17.0923 55.2685 16.5701C55.3658 16.4377 55.6441 16.4796 55.6789 16.2781C55.658 15.9012 55.0323 15.6649 54.8238 16.0203ZM61.6425 16.5209C62.1291 16.6251 62.3386 17.0431 62.9222 17.0711C62.9774 16.8763 63.2853 16.8968 63.3264 16.6876C63.2147 16.5413 62.9719 16.5275 62.9928 16.2422C62.7695 16.1935 62.8254 16.4233 62.6164 16.3956C62.2552 16.1174 61.7958 15.9083 61.6425 16.5209ZM60.6268 16.8067C60.7929 16.6814 60.9603 16.4094 60.8494 16.1312C60.3694 16.0606 60.2224 16.6879 60.6268 16.8067ZM58.9843 16.9944C58.8169 17.0923 58.6981 17.4893 58.8731 17.6633C59.2422 17.7528 59.2765 17.0431 58.9843 16.9944ZM63.9249 18.0527C64.1695 18.2127 64.6076 18.1501 64.9061 18.0878C64.8088 17.6356 64.4253 17.4542 64.0426 17.3011C64.0776 17.5374 64.0426 17.7806 63.9249 18.0527ZM57.7452 18.1158C57.8705 18.3171 58.4141 18.2959 58.6783 18.227C58.7758 17.6631 57.7726 17.6419 57.7452 18.1158ZM62.0184 18.8667C62.1984 19.0965 62.5395 19.1813 62.7286 19.3964C62.7137 19.4799 62.6593 19.5911 62.7286 19.6607C62.9646 19.6408 62.8254 19.4801 62.8045 19.3194C63.3674 18.9091 63.2986 19.8902 63.5498 20.2519C63.7159 20.4972 63.9251 20.5246 64.0086 20.7055C64.147 20.7332 64.3008 20.7466 64.4256 20.7816C64.7465 21.3527 63.8977 21.6105 64.232 22.1815C65.0667 22.2922 65.1917 20.7955 64.5799 20.5665C64.5799 20.4409 64.5237 20.3851 64.4957 20.3011C63.8697 20.2174 63.4242 19.5709 63.4799 19.0619C63.6188 19.3406 63.8344 19.125 64.0779 19.236C64.0646 19.0763 63.9531 19.0062 63.8208 18.9444C63.7161 18.9507 63.6602 19.0208 63.55 19.0208C63.4525 18.9373 63.3824 18.8049 63.2152 18.7565C63.0488 18.7565 63.0907 18.9784 62.888 18.9444C62.6439 18.7411 62.2408 18.4152 62.0184 18.8667ZM64.7876 19.5911C65.0031 19.3823 64.9262 18.7696 64.6076 18.7562C64.4397 19.0062 64.4876 19.5081 64.7876 19.5911ZM59.5056 19.7309C59.5962 19.8143 59.7494 19.8143 59.9169 19.8143C59.9169 19.7515 59.9292 19.7309 59.9566 19.689C59.819 19.5982 59.5125 19.3616 59.5056 19.7309ZM56.8398 20.5246C56.771 20.8931 56.8398 21.1794 56.7993 21.5689C56.6039 21.75 56.3954 21.8884 56.4378 22.2093C56.2421 22.3969 55.8393 22.3689 55.7202 22.6267C56.2013 22.8916 57.0224 22.9122 57.335 22.5076C57.3837 22.2509 57.2735 21.8261 57.5584 21.7911C58.0306 21.8882 57.6196 22.856 58.0868 22.968C58.2197 22.7379 58.1778 22.1391 58.0868 21.9162C58.2608 21.8049 58.2608 21.5406 58.4985 21.4849C58.5252 21.6102 58.4143 21.8748 58.5671 21.8748C58.7196 21.7837 58.6987 21.4011 58.6087 21.2763C58.2958 21.2061 58.2958 21.4291 58.0452 21.4291C57.9058 21.0598 57.5158 21.0397 57.1749 21.2341C57.0504 21.0044 57.1341 20.7675 57.1059 20.4199C56.8273 20.3153 56.7436 20.036 56.6468 19.8416C56.5068 20.1556 56.7433 20.3574 56.8398 20.5246ZM63.0619 22.7733C63.3264 22.6966 63.5215 22.5506 63.7085 22.3969C63.4935 22.2512 63.0619 22.4597 63.0619 22.7733Z" fill="#6A005F"/>
<path fill-rule="evenodd" clip-rule="evenodd" d="M43.3764 12.831C43.6061 12.7965 43.6752 12.5314 43.9809 12.5732C44.4552 12.6083 44.5664 13.8894 44.6216 14.5225C44.7063 15.6363 44.6077 18.6309 43.4939 17.6358C43.4664 17.3917 43.5093 17.2244 43.5648 17.0713C43.0348 16.758 41.9772 16.5212 41.0522 16.4309C40.5861 16.3958 39.9311 16.4586 40.1121 15.8316C40.2591 15.3304 41.4347 15.6513 41.9142 15.7135C42.6597 15.8389 43.0905 15.9648 43.6749 16.1315C43.7999 16.0339 43.7314 15.7484 43.7926 15.5678C43.3558 15.2406 41.8731 14.8509 40.9055 14.7876C40.432 14.7536 39.9599 14.8085 39.9599 14.3354C39.9599 14.12 40.1268 14.0569 40.2657 13.9174C41.6147 13.9386 42.7078 14.2035 43.7175 14.551C43.9956 13.6054 42.757 13.4861 42.0601 13.3123C41.3648 13.1516 40.6546 13.1171 40.1121 13.0553C39.8066 12.9017 39.8343 12.282 40.2999 12.2678C41.1637 12.2461 42.8117 12.5732 43.3764 12.831Z" fill="#6A005F"/>
<path fill-rule="evenodd" clip-rule="evenodd" d="M37.6771 23.4905C36.8419 22.4041 39.5137 22.515 39.8475 21.9518C39.4797 21.7631 38.9581 21.6728 38.4629 21.6108C37.9557 21.5412 37.4328 21.4855 36.9604 21.4855C36.9947 22.2374 37.329 23.519 36.5217 23.7485C35.9507 23.8938 34.198 23.7344 34.1146 23.3303C33.9396 22.4041 35.4503 23.0097 36.1319 22.9197C36.3119 22.5153 36.1529 21.8406 36.0205 21.4855C34.6778 21.3737 33.3908 21.6315 32.2764 21.8754C32.6102 22.3973 33.5851 22.2654 33.6618 22.7736C33.8501 23.8938 31.9152 22.7595 31.6361 22.5786C30.5795 21.9728 29.806 21.2698 29.0474 20.2523C28.7492 19.8568 28.1431 19.0905 28.185 18.687C28.2271 18.2826 29.1107 18.0533 29.6883 17.8997C33.0641 16.9884 36.9533 16.6398 40.711 17.4059C41.2195 17.5098 41.8042 17.7053 42.3948 17.8997C42.8895 18.0533 43.8079 18.2551 43.8707 18.6098C43.9476 19.0766 43.0836 20.1761 42.8895 20.4483C42.0331 21.5972 41.1502 22.3135 39.82 22.9197C39.1941 23.1976 38.4841 23.5106 37.6771 23.4905ZM29.2284 18.9445C29.737 19.9115 30.4534 20.6501 31.2612 21.3112C31.8051 21.1162 32.3952 20.9563 33.0285 20.8587C32.7782 20.6213 32.4643 20.4831 32.1231 20.2177C31.8744 20.0303 31.387 19.7516 31.408 19.3619C31.4417 18.951 32.3193 18.7414 32.9108 18.6095C34.8795 18.1714 37.1901 18.2271 39.0688 18.6372C39.6534 18.7767 40.6425 18.9303 40.6425 19.3965C40.6425 19.6608 40.1962 20.0442 39.9603 20.2175C39.6398 20.4828 39.2778 20.5103 39.069 20.8584C39.7654 20.9073 40.294 21.1301 40.864 21.3109C41.7139 20.7186 42.3527 19.9183 42.8118 18.9442C39.2349 17.4475 32.854 17.5514 29.2284 18.9445ZM32.764 19.5912C34.225 20.866 37.7886 20.866 39.2493 19.5912C37.5095 19.0209 34.497 19.0209 32.764 19.5912Z" fill="#6A005F"/>
<path d="M11.0812 45.5385C11.0812 45.455 11.0456 45.3509 11.0113 45.1904C10.9697 45.0447 10.9352 44.934 10.8934 44.8916C10.8314 44.7942 10.7116 44.7241 10.5248 44.6966C10.3425 44.6688 10.1212 44.6474 9.84257 44.6474H5.85548V44.3064L10.3014 41.0198H7.49745C7.18512 41.0198 6.94812 41.0339 6.78123 41.0758C6.60702 41.1111 6.48904 41.1666 6.41841 41.2637C6.36322 41.3194 6.3075 41.4453 6.26565 41.6254C6.20993 41.8062 6.18194 41.9248 6.18194 41.9805H5.91721V39.7601H6.18194C6.19632 39.8295 6.20993 39.9478 6.26565 40.1014C6.3075 40.2686 6.34935 40.366 6.37734 40.4073C6.44745 40.4989 6.55784 40.5675 6.69726 40.5885C6.85029 40.6238 7.10167 40.6507 7.46292 40.6507H10.1353C10.2462 40.6507 10.3652 40.6235 10.4832 40.5814C10.608 40.5398 10.6912 40.4914 10.761 40.421C10.845 40.3173 10.9145 40.1917 10.9773 40.0454C11.0398 39.8926 11.0681 39.7599 11.0814 39.6554H11.3456V41.215L7.19768 44.2645H9.78685C10.1013 44.2645 10.3506 44.2566 10.5177 44.2088C10.6912 44.1807 10.8036 44.1109 10.8594 44.0276C10.9077 43.9583 10.9559 43.8536 10.9977 43.6861C11.0396 43.5186 11.0678 43.3943 11.0812 43.3171H11.3454V45.5377L11.0812 45.5385Z" fill="#6A005F"/>
<path d="M6.363 51.742L6.126 49.5007L6.39727 49.4729C6.43284 49.6674 6.47469 49.8357 6.53015 49.9597C6.57122 50.0853 6.62694 50.1406 6.69704 50.1406C6.71195 50.1406 6.73864 50.134 6.76662 50.1201C6.79488 50.1131 6.82836 50.1057 6.85007 50.0853L8.0191 49.5213L7.8318 47.6205C7.64241 47.5648 7.48337 47.5164 7.35101 47.4952C7.21158 47.4609 7.08759 47.4253 6.97537 47.4122C6.85007 47.385 6.76662 47.385 6.69704 47.3701C6.62694 47.3701 6.57148 47.3701 6.53015 47.3701C6.42604 47.385 6.363 47.4611 6.3146 47.6349C6.28086 47.8021 6.26543 47.9759 6.27327 48.1777L6.00201 48.2057L5.79196 46.1586L6.06322 46.145C6.07813 46.2078 6.09906 46.2913 6.13228 46.3954C6.16838 46.486 6.20997 46.5627 6.26569 46.6182C6.33553 46.7228 6.41845 46.7859 6.49536 46.8417C6.57148 46.8903 6.6837 46.9317 6.82234 46.9743C7.53203 47.1761 8.3262 47.385 9.20225 47.6422C10.0796 47.8783 10.8591 48.0945 11.5542 48.2895L11.5827 48.5889L7.09361 50.8726C7.00336 50.9074 6.91991 50.9634 6.86393 51.0186C6.80848 51.0749 6.75224 51.151 6.71169 51.2486C6.68344 51.3115 6.65519 51.3876 6.64786 51.479C6.62668 51.5766 6.62668 51.653 6.62668 51.7221L6.363 51.742ZM8.3398 49.347L10.365 48.3169L8.18651 47.7184L8.3398 49.347Z" fill="#6A005F"/>
<path d="M12.8206 57.4301C12.8065 57.3675 12.7647 57.2563 12.6948 57.1171C12.6263 56.9917 12.5551 56.8943 12.5075 56.8388C12.4311 56.7687 12.2925 56.7344 12.1042 56.7344C11.9292 56.7412 11.6937 56.776 11.4214 56.8388L7.53189 57.6952L7.46231 57.3741L11.1012 53.1968L8.36007 53.7956C8.05323 53.8582 7.82435 53.9351 7.67079 54.011C7.51201 54.0953 7.40633 54.1785 7.35061 54.2699C7.3085 54.339 7.28051 54.4709 7.28051 54.6522C7.26717 54.854 7.26717 54.9788 7.28051 55.0207L7.01709 55.0906L6.52976 52.9113L6.79448 52.8493C6.82195 52.9186 6.87767 53.0231 6.95483 53.1759C7.03095 53.33 7.0872 53.4122 7.1348 53.4481C7.22557 53.531 7.33649 53.5596 7.48978 53.5596C7.64176 53.5596 7.89419 53.5313 8.24157 53.4481L10.8509 52.8697C10.9691 52.8417 11.0806 52.8003 11.1923 52.7378C11.2898 52.6679 11.366 52.592 11.4138 52.5156C11.4839 52.4104 11.5255 52.2573 11.5535 52.1039C11.5676 51.9294 11.575 51.7975 11.5608 51.7074L11.8243 51.6517L12.1654 53.1623L8.77024 57.0542L11.2896 56.4824C11.61 56.4133 11.8308 56.3505 11.9993 56.2662C12.1591 56.1969 12.2493 56.1204 12.2917 56.0231C12.3187 55.9464 12.3466 55.8148 12.3532 55.6546C12.3608 55.4874 12.3608 55.3555 12.3466 55.2858L12.6108 55.216L13.0919 57.3811L12.8206 57.4301Z" fill="#6A005F"/>
<path d="M14.5186 60.6253C14.4772 60.5632 14.4207 60.4866 14.359 60.4096C14.2894 60.3337 14.2264 60.2706 14.1699 60.2149C14.094 60.1523 14.0247 60.1178 13.9491 60.1382C13.8782 60.1458 13.795 60.1662 13.7247 60.2149L10.9278 61.8166C10.7826 61.8993 10.6147 61.9624 10.4138 61.9901C10.2181 62.0254 10.0238 62.0254 9.82861 61.9901C9.60652 61.9344 9.39777 61.8585 9.20237 61.7258C9.02162 61.5933 8.861 61.3978 8.72158 61.1683C8.52015 60.8205 8.44272 60.4716 8.52015 60.1175C8.60334 59.7763 8.79848 59.5114 9.15267 59.3159C9.29314 59.2337 9.45245 59.1911 9.61908 59.1911C9.77237 59.2057 9.89793 59.2884 9.9955 59.4413C10.0578 59.5808 10.0857 59.6917 10.0512 59.8176C10.0368 59.943 9.95364 60.0409 9.83593 60.1175C9.75981 60.1591 9.67479 60.1869 9.59109 60.201C9.50764 60.2146 9.43152 60.2146 9.35566 60.2146C9.27823 60.2078 9.20211 60.2078 9.1048 60.2078C9.01403 60.2013 8.93137 60.2078 8.86754 60.2146C8.82647 60.2986 8.79848 60.4093 8.79848 60.5488C8.79848 60.681 8.84687 60.8202 8.93686 60.987C9.03574 61.1547 9.16025 61.2594 9.28555 61.3151C9.41739 61.3774 9.56414 61.3976 9.71665 61.3774C9.85607 61.3633 10.0235 61.3151 10.205 61.2385C10.385 61.1547 10.5801 61.071 10.7823 60.9524L13.2797 59.5111C13.3493 59.4622 13.4115 59.414 13.4471 59.3716C13.4892 59.3096 13.5028 59.2337 13.5028 59.129C13.4953 59.0382 13.4673 58.9335 13.4333 58.816C13.3906 58.7037 13.3493 58.6203 13.315 58.5433L13.5586 58.4117L14.749 60.4863L14.5186 60.6253Z" fill="#6A005F"/>
<path d="M12.6049 66.8501L11.1215 64.9082L11.3315 64.7405C11.3865 64.7889 11.4571 64.8724 11.5335 64.9702C11.6237 65.0611 11.6933 65.1299 11.7352 65.1652C11.8189 65.2066 11.8879 65.2212 11.9573 65.2212C12.0276 65.2066 12.1043 65.1786 12.1804 65.1239L15.3108 62.7281C15.3817 62.6792 15.4377 62.6242 15.4719 62.5612C15.4994 62.5057 15.4994 62.4217 15.4719 62.311C15.4442 62.2278 15.4099 62.1299 15.3615 62.0254C15.3108 61.9205 15.2695 61.8446 15.2284 61.7747L15.4439 61.607L16.9261 63.5502L16.704 63.7169C16.6627 63.6549 16.5926 63.5915 16.5154 63.5151C16.4393 63.4316 16.3634 63.3691 16.286 63.3201C16.2169 63.2644 16.1337 63.2435 16.0563 63.2576C15.9794 63.2717 15.9106 63.3058 15.8408 63.3547L12.7159 65.7496C12.6546 65.7983 12.5984 65.8535 12.5696 65.9242C12.5422 66.0009 12.5356 66.07 12.5552 66.1736C12.577 66.2163 12.6193 66.3131 12.6675 66.411C12.7237 66.5287 12.7724 66.6204 12.8208 66.6824L12.6049 66.8501Z" fill="#6A005F"/>
<path d="M21.9506 68.7784C21.8941 68.7297 21.7973 68.6669 21.6717 68.5902C21.5323 68.5206 21.4352 68.4785 21.3523 68.4649C21.2404 68.451 21.1148 68.4926 20.9615 68.5976C20.8234 68.7159 20.6418 68.8687 20.4621 69.0715L17.705 71.9533L17.4688 71.7243L18.1505 66.2306L16.2166 68.2566C16.0003 68.4929 15.8478 68.6672 15.7567 68.8279C15.6735 68.9744 15.6385 69.1129 15.6456 69.2097C15.6456 69.3016 15.7 69.4194 15.7994 69.579C15.8962 69.7394 15.9652 69.8433 16.0078 69.8863L15.8266 70.0807L14.205 68.5348L14.4004 68.3474C14.4485 68.3966 14.5461 68.4513 14.6994 68.528C14.8532 68.6117 14.9492 68.6601 15.0052 68.6601C15.1242 68.6672 15.2419 68.6326 15.367 68.5348C15.4855 68.4515 15.6738 68.2914 15.9105 68.0344L17.7756 66.0911C17.8447 66.0014 17.9138 65.9176 17.9692 65.7988C18.0176 65.6813 18.0406 65.5834 18.0328 65.4929C18.0252 65.3536 17.9839 65.2217 17.9138 65.0746C17.8376 64.9147 17.7756 64.8108 17.705 64.7271L17.8855 64.5316L19.0135 65.6114L18.3739 70.7209L20.1548 68.8549C20.3708 68.6185 20.5309 68.4233 20.6146 68.2835C20.697 68.1315 20.7255 68.0058 20.7255 67.9082C20.697 67.8315 20.6424 67.7064 20.5587 67.5667C20.475 67.4272 20.4062 67.3233 20.3507 67.2537L20.5307 67.0587L22.1308 68.5834L21.9506 68.7784Z" fill="#6A005F"/>
<path d="M25.0269 74.3757C24.9711 74.3485 24.8861 74.3129 24.8035 74.2642C24.7061 74.2226 24.6303 74.1948 24.5604 74.181C24.4686 74.181 24.399 74.1878 24.3232 74.2291C24.268 74.2645 24.206 74.3273 24.1492 74.4108L23.9128 74.7588C23.7448 75.0153 23.6206 75.1839 23.5719 75.2747C23.5091 75.372 23.4681 75.4341 23.4401 75.4966C23.0639 75.4343 22.7168 75.3508 22.3961 75.2252C22.0751 75.093 21.7693 74.9535 21.5049 74.78C21.22 74.5709 20.9762 74.3343 20.7889 74.0493C20.587 73.7565 20.4627 73.45 20.3994 73.1234C20.3358 72.768 20.3358 72.4199 20.4206 72.0577C20.4891 71.6955 20.6427 71.3196 20.8935 70.9721C21.1156 70.6237 21.3947 70.3453 21.7076 70.1294C22.0202 69.914 22.3542 69.7674 22.7019 69.6905C23.0432 69.6138 23.3993 69.6138 23.7529 69.6829C24.1074 69.7535 24.4555 69.9001 24.7624 70.1082C25.0133 70.2825 25.222 70.4633 25.3745 70.6588C25.5134 70.8467 25.6251 71.0213 25.7219 71.2089L25.9863 71.0762L26.2443 71.2576L25.2071 72.8515L24.9573 72.6709C25.0271 72.4612 25.0823 72.2736 25.1231 72.0511C25.1791 71.8355 25.1937 71.6332 25.1791 71.4175C25.1652 71.2157 25.1106 71.0213 25.013 70.8467C24.9217 70.6727 24.7621 70.5052 24.568 70.366C24.331 70.2199 24.1071 70.122 23.8644 70.0948C23.6208 70.0671 23.371 70.0948 23.1199 70.1924C22.869 70.2757 22.6195 70.429 22.3825 70.6588C22.1314 70.8745 21.8946 71.1322 21.6723 71.4521C21.4847 71.7379 21.3382 72.0297 21.2344 72.3356C21.1303 72.6355 21.0876 72.9281 21.0876 73.1995C21.0944 73.4717 21.1583 73.7363 21.2828 73.9797C21.407 74.2095 21.5959 74.4183 21.8402 74.5924C22.0338 74.7175 22.2148 74.8143 22.4099 74.8431C22.6046 74.8842 22.7579 74.9125 22.8549 74.8842C22.9527 74.7803 23.0372 74.6895 23.1128 74.5712C23.1889 74.4599 23.2583 74.3621 23.3069 74.293L23.4678 74.0425C23.5374 73.9517 23.579 73.8677 23.5931 73.7845C23.6206 73.7015 23.613 73.6107 23.551 73.5269C23.4953 73.4503 23.4267 73.3529 23.3218 73.2631C23.2033 73.1653 23.1199 73.0883 23.0503 73.0538L23.2033 72.803L25.1859 74.1464L25.0269 74.3757Z" fill="#6A005F"/>
<path d="M38.6654 75.2603C38.5942 75.2603 38.4977 75.2745 38.3591 75.3085C38.2199 75.3365 38.1082 75.3718 38.0182 75.4271C37.9272 75.4896 37.8715 75.6144 37.843 75.7963C37.8092 75.9772 37.7883 76.1996 37.7883 76.4642V78.8317C37.7883 79.1243 37.7253 79.3884 37.6002 79.6113C37.4681 79.8409 37.3075 80.0222 37.1063 80.1683C36.9104 80.3004 36.6949 80.4119 36.4655 80.4598C36.2431 80.5297 36.0349 80.5582 35.8248 80.5582C35.5049 80.5582 35.2062 80.5158 34.9551 80.4258C34.6982 80.3426 34.4894 80.224 34.3082 80.0775C34.141 79.9309 34.0092 79.7718 33.9323 79.5755C33.8355 79.3881 33.7936 79.1939 33.7936 78.9911V75.7895C33.7936 75.6851 33.7795 75.6144 33.752 75.5529C33.7248 75.4899 33.6613 75.4341 33.5708 75.3923C33.5148 75.3509 33.4313 75.3158 33.327 75.2946C33.2228 75.2747 33.1397 75.2606 33.0834 75.2606V74.9824H35.3385V75.2606C35.2682 75.2606 35.1779 75.2666 35.0733 75.2884C34.9627 75.3085 34.8865 75.3368 34.8368 75.3506C34.74 75.3718 34.6835 75.4339 34.6634 75.4964C34.6286 75.5804 34.6145 75.6642 34.6145 75.7469V78.7414C34.6145 78.8804 34.6286 79.0408 34.6634 79.1939C34.6979 79.3536 34.761 79.4996 34.8512 79.6464C34.9548 79.7851 35.0874 79.8966 35.2616 79.9804C35.4356 80.0707 35.6579 80.1267 35.9656 80.1267C36.2429 80.1267 36.4798 80.0707 36.6737 79.9804C36.8555 79.8966 37.0145 79.7851 37.1189 79.6391C37.2165 79.4996 37.3004 79.3536 37.3483 79.2002C37.3831 79.0474 37.4111 78.9079 37.4111 78.7477V76.5263C37.4111 76.2347 37.3831 76.0041 37.3483 75.8236C37.3004 75.6498 37.2447 75.5242 37.1749 75.4687C37.0778 75.4059 36.9523 75.3567 36.8058 75.3156C36.6449 75.2884 36.5282 75.2603 36.4445 75.2603V74.9821H38.6646L38.6654 75.2603Z" fill="#6A005F"/>
<path d="M44.9766 72.5033C44.9138 72.5444 44.8162 72.5999 44.7064 72.6978C44.5792 72.8022 44.4968 72.8784 44.455 72.9415C44.3993 73.0323 44.3927 73.1647 44.4411 73.3387C44.4764 73.5264 44.5528 73.7418 44.6627 73.993L46.2565 77.6408L45.9442 77.7873L41.1567 75.0231L42.2768 77.5919C42.3945 77.8779 42.5059 78.0936 42.6179 78.2255C42.722 78.3788 42.8271 78.455 42.9247 78.4832C43.0076 78.5183 43.1395 78.5183 43.3205 78.4832C43.5096 78.4626 43.6341 78.434 43.6891 78.4136L43.8002 78.6636L41.7481 79.5628L41.6369 79.3042C41.7062 79.277 41.7962 79.2003 41.9359 79.0886C42.0607 78.991 42.1376 78.908 42.1653 78.8667C42.221 78.7685 42.2286 78.6356 42.2004 78.4832C42.1732 78.3367 42.0892 78.1142 41.9498 77.7729L40.8783 75.3223C40.8223 75.2181 40.7664 75.1066 40.6837 75.0229C40.5995 74.9389 40.5171 74.8768 40.4187 74.8423C40.3075 74.8135 40.1608 74.7795 40.0004 74.7931C39.8273 74.8064 39.6946 74.8281 39.6049 74.87L39.5003 74.6125L40.9199 73.9928L45.3729 76.5686L44.3436 74.1948C44.218 73.9093 44.0998 73.6936 43.9956 73.5476C43.8905 73.4005 43.7929 73.3241 43.6959 73.3105C43.6059 73.2827 43.4939 73.2827 43.32 73.3105C43.1601 73.3385 43.0346 73.373 42.9522 73.4008L42.8473 73.1432L44.8717 72.273L44.9766 72.5033Z" fill="#6A005F"/>
<path d="M50.4178 75.6499L48.2194 76.7224L48.1009 76.478C48.1642 76.4505 48.2472 76.3879 48.3659 76.3322C48.4768 76.2623 48.5543 76.1995 48.588 76.1644C48.6445 76.0885 48.6861 76.0187 48.6924 75.9491C48.6992 75.8792 48.6861 75.7962 48.6442 75.7195L46.9034 72.1825C46.8767 72.099 46.8273 72.0288 46.7789 71.9872C46.7232 71.9527 46.6394 71.9386 46.5288 71.9456C46.4456 71.9527 46.3473 71.9731 46.2363 71.9872C46.111 72.0223 46.0271 72.05 45.9583 72.0783L45.8322 71.8344L48.0389 70.7624L48.1574 71.0063C48.0878 71.0409 48.0112 71.0971 47.9131 71.1529C47.8236 71.2081 47.7389 71.2709 47.6832 71.3398C47.6136 71.4026 47.5728 71.4936 47.5728 71.5703C47.5728 71.6323 47.5997 71.709 47.6272 71.786L49.3544 75.3225C49.3887 75.3992 49.4374 75.462 49.5064 75.4963C49.5624 75.5452 49.6459 75.5588 49.7437 75.5528C49.7994 75.5528 49.8896 75.5382 50.0079 75.4963C50.1204 75.4688 50.2234 75.434 50.3001 75.4057L50.4178 75.6499Z" fill="#6A005F"/>
<path d="M53.084 67.1076C53.0345 67.1626 52.9709 67.2262 52.9158 67.3028C52.8606 67.379 52.8252 67.469 52.8048 67.5324C52.7706 67.6295 52.7483 67.7124 52.7706 67.8179C52.7839 67.9082 52.8048 68.0267 52.8326 68.1437C52.9571 68.5763 53.1525 69.2312 53.4172 70.1076C53.6948 70.9925 53.9736 71.9116 54.2653 72.8724L54.0217 73.0668C53.1172 72.5311 52.2479 72.0153 51.4122 71.5002C50.5633 70.9993 50.0001 70.6654 49.7011 70.4842C49.6305 70.4494 49.5544 70.4136 49.4707 70.3932C49.394 70.3869 49.3114 70.3869 49.2138 70.3932C49.1301 70.4076 49.0464 70.4282 48.9703 70.4628C48.8944 70.4984 48.8235 70.5395 48.761 70.567L48.5868 70.3586L50.341 68.9595L50.5217 69.1676C50.3687 69.3008 50.257 69.4185 50.1733 69.5162C50.0909 69.6201 50.0757 69.6975 50.1189 69.7525C50.1322 69.7797 50.1607 69.808 50.1872 69.8226C50.2222 69.8501 50.2439 69.8716 50.2709 69.8854C50.4943 70.0236 50.8699 70.233 51.3912 70.546C51.9141 70.8734 52.65 71.3047 53.6111 71.8692C53.4575 71.3822 53.2909 70.8038 53.0887 70.1424C52.8799 69.4814 52.7345 69.0354 52.6497 68.792C52.5746 68.5481 52.5108 68.4023 52.47 68.3324C52.4211 68.2489 52.3798 68.1867 52.3518 68.1369C52.3165 68.0882 52.2597 68.0673 52.1912 68.0744C52.1226 68.0744 52.0523 68.0885 51.9686 68.1236C51.8856 68.1592 51.8009 68.2 51.7187 68.2489C51.6486 68.2906 51.5788 68.3324 51.5092 68.3809L51.3292 68.1652L52.9147 66.9056L53.084 67.1076Z" fill="#6A005F"/>
<path d="M59.1572 65.3392L60.3194 66.4386L57.4255 69.9063L57.2167 69.7388C57.2656 69.676 57.3208 69.586 57.3985 69.4816C57.4603 69.3698 57.5024 69.301 57.5089 69.2445C57.5361 69.1678 57.5293 69.0992 57.5089 69.0356C57.4812 68.9665 57.4255 68.9032 57.3556 68.848L54.3571 66.3345C54.2935 66.279 54.2247 66.2434 54.1541 66.2303C54.0921 66.2096 54.016 66.2164 53.9197 66.2583C53.8483 66.286 53.7787 66.3486 53.6811 66.4111C53.5838 66.4878 53.515 66.5504 53.4583 66.5996L53.2569 66.4389L55.9499 63.1947L56.9523 64.0377L56.7707 64.2596C56.5908 64.1698 56.3535 64.1209 56.089 64.1209C55.8034 64.1133 55.6093 64.162 55.4979 64.2596C55.4348 64.3156 55.3788 64.385 55.2962 64.4551C55.2258 64.5313 55.1429 64.6359 55.0451 64.7406L54.5159 65.4022L56.1584 66.7802L56.5628 66.3135C56.681 66.1678 56.7639 66.0424 56.7987 65.9521C56.8262 65.854 56.8262 65.7501 56.7987 65.6527C56.7846 65.5553 56.7359 65.4572 56.6601 65.3394C56.5908 65.2342 56.5212 65.1379 56.45 65.0531L56.6318 64.8375L58.2599 66.2028L58.086 66.4114C57.9811 66.3554 57.8636 66.2863 57.7318 66.2374C57.6062 66.1819 57.4948 66.1539 57.4108 66.1468C57.2855 66.1468 57.1738 66.174 57.0904 66.2374C56.9936 66.2866 56.9036 66.3834 56.7985 66.5232L56.3946 66.9825L57.6617 68.027C57.7873 68.1377 57.884 68.2076 57.9751 68.2497C58.0648 68.2978 58.1488 68.2978 58.2322 68.2913C58.3023 68.2698 58.3918 68.2146 58.482 68.1377C58.5519 68.0618 58.6633 67.9286 58.8085 67.7624C58.8516 67.6988 58.9285 67.6297 59.0117 67.5114C59.108 67.4208 59.1778 67.3235 59.2257 67.2397C59.2895 67.1628 59.3311 67.0589 59.3793 66.9618C59.4282 66.8778 59.4423 66.7935 59.4282 66.7383C59.4282 66.5637 59.3591 66.3551 59.2414 66.0837C59.1362 65.8328 59.0452 65.6595 58.9835 65.548L59.1572 65.3392Z" fill="#6A005F"/>
<path d="M63.6673 60.2707L62.9718 61.5377C62.3667 61.5937 61.8365 61.6421 61.3915 61.7052C60.9463 61.7468 60.4734 61.8169 59.986 61.8996L59.7153 62.3877L61.2252 63.209C61.3081 63.2501 61.3847 63.2783 61.4475 63.2856C61.5315 63.2856 61.6011 63.2647 61.6774 63.2019C61.7185 63.1668 61.7682 63.0975 61.8365 63.0074C61.9066 62.9232 61.9618 62.8329 61.9974 62.7562L62.2409 62.8886L61.1417 64.9146L60.9047 64.7829C60.9327 64.7269 60.9607 64.6434 61.0086 64.5314C61.0578 64.4275 61.0716 64.3579 61.0782 64.3092C61.086 64.2255 61.0719 64.1619 61.0292 64.0922C60.9884 64.0305 60.9257 63.9815 60.8493 63.9263L57.3833 62.0462C57.3137 62.0184 57.2302 61.9902 57.1601 61.9763C57.084 61.9622 57.0079 61.9902 56.9375 62.0462C56.8823 62.1019 56.8263 62.1718 56.7638 62.248C56.6945 62.3246 56.632 62.3937 56.6035 62.4571L56.3602 62.338L57.564 60.1179C57.6754 59.9156 57.7877 59.7279 57.9268 59.5955C58.0652 59.4356 58.219 59.31 58.3925 59.2063C58.5523 59.1147 58.7336 59.0736 58.9292 59.0668C59.1089 59.0668 59.3114 59.1076 59.5123 59.2265C59.7014 59.3312 59.8471 59.4497 59.9567 59.5814C60.0703 59.7067 60.1464 59.8527 60.1943 60.0268C60.2369 60.1801 60.2502 60.3476 60.2502 60.5282C60.2369 60.6949 60.2081 60.8907 60.1678 61.0852C60.6128 61.0223 60.9884 60.9666 61.2806 60.9326C61.5728 60.8907 61.9341 60.8344 62.3665 60.7789C62.5538 60.7512 62.7076 60.7167 62.8044 60.6813C62.9221 60.6253 63.006 60.5842 63.0903 60.5214C63.1599 60.472 63.2148 60.4097 63.2852 60.3338C63.3461 60.256 63.3885 60.187 63.4238 60.1383L63.6673 60.2707ZM59.1448 60.1029C58.8526 59.9436 58.5805 59.9012 58.3155 59.9784C58.0655 60.0543 57.8504 60.25 57.6904 60.5492L57.3702 61.1268L59.4289 62.2275L59.6659 61.7879C59.833 61.4814 59.8746 61.1684 59.7914 60.8549C59.7014 60.5356 59.4856 60.299 59.1448 60.1029Z" fill="#6A005F"/>
<path d="M62.2693 55.6271C62.4221 55.5439 62.5748 55.502 62.7352 55.4881C62.9018 55.474 63.0763 55.4881 63.2701 55.5439C63.7441 55.6554 64.0777 55.9273 64.2874 56.3513C64.4954 56.776 64.5373 57.2353 64.4046 57.7512C64.3426 57.9734 64.2456 58.2105 64.1187 58.4259C63.9803 58.6562 63.8409 58.8166 63.6876 58.9621L63.9183 59.1919L63.8412 59.4978L62.0326 59.0739L62.1158 58.7739C62.3525 58.7739 62.5605 58.7465 62.7695 58.7043C62.9717 58.6771 63.1597 58.6138 63.3541 58.5238C63.5354 58.4259 63.6874 58.3002 63.8203 58.1615C63.9529 58.0084 64.0426 57.8273 64.1059 57.5905C64.1467 57.4227 64.1692 57.2563 64.1543 57.1306C64.147 56.9849 64.1059 56.8734 64.0426 56.776C63.9803 56.6637 63.8974 56.5816 63.8134 56.5109C63.7028 56.4489 63.5775 56.3931 63.4386 56.3513C63.2283 56.3094 63.013 56.3094 62.8043 56.3785C62.5879 56.4562 62.4079 56.602 62.2549 56.8111C62.1427 56.9571 62.0252 57.117 61.8926 57.3123C61.7676 57.4861 61.6423 57.6596 61.5311 57.7991C61.3226 58.0569 61.0924 58.2304 60.828 58.3421C60.57 58.4539 60.2642 58.4602 59.9237 58.3761C59.7215 58.3222 59.5475 58.2241 59.3874 58.0985C59.2417 57.9666 59.1164 57.8271 59.0249 57.6316C58.9289 57.4578 58.8726 57.256 58.8519 57.0548C58.831 56.8312 58.8441 56.6227 58.9009 56.4062C58.9699 56.1696 59.0528 55.9548 59.1784 55.7875C59.3037 55.6135 59.4287 55.4599 59.5831 55.3413L59.3597 55.111L59.4287 54.8056L61.19 55.2364L61.1134 55.5436C60.9041 55.5436 60.6959 55.5502 60.4939 55.5708C60.2922 55.5918 60.1117 55.6336 59.9289 55.7035C59.7562 55.7734 59.6179 55.877 59.4852 56.0103C59.3599 56.1427 59.2762 56.3091 59.2067 56.5316C59.1499 56.7758 59.1787 56.9987 59.2765 57.1932C59.3879 57.395 59.5546 57.5274 59.7636 57.5902C59.9927 57.653 60.1941 57.6394 60.3757 57.5756C60.5559 57.5135 60.7171 57.3816 60.863 57.2144C60.9943 57.0545 61.1136 56.8938 61.2251 56.7339C61.3357 56.5735 61.4474 56.4277 61.5594 56.2814C61.6562 56.156 61.7678 56.0236 61.8858 55.9113C62.0043 55.8014 62.1294 55.6962 62.2693 55.6271Z" fill="#6A005F"/>
<path d="M65.4974 52.0211L65.1639 54.4443L64.8924 54.4084C64.8997 54.3252 64.9062 54.2352 64.913 54.1027C64.9264 53.97 64.9201 53.8866 64.9062 53.8169C64.8858 53.7403 64.8442 53.6706 64.7948 53.6212C64.7461 53.573 64.6627 53.5455 64.5649 53.5312L60.6604 53.0093C60.5704 53.0022 60.5016 53.0093 60.4391 53.0093C60.3758 53.0368 60.3057 53.0928 60.2581 53.1969C60.2225 53.2666 60.1744 53.3503 60.1393 53.4683C60.0983 53.573 60.0567 53.6706 60.0426 53.7473L59.7776 53.7125L60.1121 51.2893L60.3758 51.3244C60.3695 51.3943 60.3695 51.4914 60.3695 51.6029C60.3695 51.7206 60.3758 51.8117 60.3905 51.9015C60.4114 51.9928 60.4519 52.0619 60.5155 52.1111C60.5778 52.1525 60.6549 52.1807 60.7373 52.1807L64.6347 52.7238C64.7187 52.7379 64.7877 52.7238 64.857 52.7028C64.9345 52.6756 64.9978 52.6118 65.0391 52.5223C65.0666 52.4804 65.1082 52.3966 65.1427 52.2851C65.1916 52.1668 65.212 52.0622 65.2256 51.9789L65.4974 52.0211Z" fill="#6A005F"/>
<path d="M62.0459 45.5738L62.0326 45.831C61.9342 45.8527 61.8241 45.8938 61.7048 45.9496C61.573 46.0058 61.4477 46.0687 61.336 46.1304C61.2253 46.2074 61.1139 46.2838 61.0294 46.3809C60.9329 46.4644 60.8779 46.5484 60.8633 46.6389C60.8494 46.7154 60.8358 46.8132 60.822 46.9307C60.822 47.0493 60.8081 47.1671 60.8081 47.265L60.7929 47.4945L65.1426 47.6478C65.2255 47.6478 65.3029 47.6413 65.3723 47.6062C65.4562 47.579 65.4976 47.5083 65.5386 47.4249C65.5666 47.3843 65.5954 47.2927 65.6365 47.1396C65.6642 46.9943 65.6854 46.8894 65.6922 46.8059L65.9642 46.8132L65.8596 49.3814L65.5954 49.3681C65.5954 49.3047 65.5805 49.1796 65.5737 49.0401C65.5669 48.887 65.5527 48.7962 65.5248 48.7342C65.4976 48.6575 65.4562 48.5803 65.3934 48.5398C65.3309 48.4974 65.2462 48.4762 65.1426 48.4691L60.7652 48.3021L60.7524 48.5319C60.7524 48.6154 60.7524 48.6989 60.7524 48.8242C60.7524 48.9352 60.7524 49.0543 60.7652 49.1516C60.7728 49.2425 60.822 49.3325 60.9046 49.4298C60.9883 49.5204 61.093 49.6104 61.2036 49.6871C61.3083 49.764 61.4341 49.8468 61.5596 49.9101C61.6847 49.9729 61.7959 50.0143 61.8798 50.0354L61.8652 50.3068L60.3904 50.2516L60.5703 45.5099L62.0459 45.5738Z" fill="#6A005F"/>
<path d="M60.9186 39.6349C60.9257 39.6692 60.9464 39.7459 60.9608 39.8446C61.0023 39.9343 61.0296 40.011 61.0581 40.0461C61.114 40.15 61.1622 40.2128 61.1907 40.2549C61.2255 40.2897 61.3157 40.3594 61.4476 40.4567C61.7327 40.6729 62.0115 40.8543 62.2975 41.0343C62.5821 41.2018 62.9499 41.4107 63.382 41.675C63.5497 41.7786 63.681 41.8493 63.7793 41.8705C63.8829 41.9192 64.0224 41.9323 64.2099 41.9323L65.2463 41.9464C65.3387 41.9464 65.4281 41.9323 65.4974 41.8907C65.5526 41.8556 65.6084 41.7943 65.6513 41.7169C65.679 41.6548 65.7059 41.5575 65.7337 41.4245C65.7617 41.2848 65.7821 41.1877 65.7899 41.0979H66.0687L66.0128 43.6449L65.7483 43.6308C65.7483 43.5622 65.7334 43.4643 65.7201 43.3178C65.713 43.1796 65.6921 43.0812 65.6717 43.0189C65.6361 42.9205 65.5801 42.8653 65.5244 42.8244C65.4558 42.7823 65.3719 42.7677 65.2748 42.7677L63.9525 42.7543C63.9104 42.7397 63.8406 42.7677 63.7291 42.8166C63.6182 42.8653 63.4934 42.914 63.3671 42.9836C63.0616 43.1367 62.7348 43.3042 62.3937 43.4779C62.0453 43.6596 61.746 43.8203 61.4957 43.959C61.3495 44.0283 61.2388 44.0977 61.1617 44.1814C61.0855 44.2374 61.0288 44.3068 60.96 44.3903C60.9249 44.4531 60.8899 44.5293 60.8773 44.6127C60.8491 44.6968 60.8352 44.7732 60.8281 44.8362H60.5629L60.5979 42.5107H60.8773C60.8773 42.775 60.8901 42.9642 60.9179 43.0815C60.9456 43.1799 60.988 43.2351 61.0434 43.2419C61.0573 43.2419 61.0853 43.2351 61.1133 43.2209C61.1543 43.2076 61.2111 43.1799 61.2668 43.1581C61.3353 43.1231 61.4191 43.0814 61.4957 43.0401C61.5867 42.998 61.6699 42.9569 61.746 42.9077C61.977 42.7899 62.2124 42.6781 62.4348 42.5525C62.6587 42.4413 62.9569 42.2741 63.3258 42.0799C62.6856 41.6753 62.191 41.3549 61.8235 41.1398C61.4748 40.9236 61.2592 40.8189 61.1899 40.8189C61.1266 40.8189 61.0774 40.8328 61.0434 40.8823C61.0078 40.9097 60.9877 40.9723 60.96 41.0416C60.9322 41.1186 60.9179 41.1953 60.9116 41.285C60.904 41.3696 60.904 41.4596 60.8899 41.5297H60.6121L60.6539 39.6357L60.9186 39.6349Z" fill="#6A005F"/>
<path d="M33.9398 62.102C33.7386 62.102 33.5712 62.1852 33.4192 62.3522C33.2641 62.5123 33.1953 62.7283 33.1953 62.9926C33.1953 63.2229 33.2641 63.4176 33.4054 63.5637C33.5432 63.711 33.7255 63.7796 33.9332 63.7796C34.142 63.7796 34.3091 63.7107 34.4486 63.5637C34.588 63.4176 34.6502 63.209 34.6502 62.9515C34.6502 62.6932 34.588 62.4917 34.4331 62.338C34.3089 62.1852 34.1354 62.102 33.9398 62.102Z" fill="#6A005F"/>
<path d="M37.371 62.102C37.1759 62.102 37.0085 62.1852 36.8772 62.3728C36.7304 62.5893 36.6457 63.0072 36.6457 63.6191C36.6457 64.2253 36.7168 64.6152 36.8565 64.8167C37.0085 65.0258 37.1759 65.124 37.3841 65.124C37.5803 65.124 37.7605 65.0258 37.9068 64.8167C38.0457 64.6149 38.1223 64.2253 38.1223 63.6191C38.1223 63.0072 38.0457 62.6102 37.9068 62.4084C37.7605 62.2124 37.5803 62.102 37.371 62.102Z" fill="#6A005F"/>
<path d="M57.7454 26.268C43.2729 26.268 28.7836 26.268 14.3106 26.268C14.2549 26.2748 14.2685 26.3442 14.2408 26.3869C14.1987 31.9703 14.262 37.7212 14.2408 43.1577C14.1987 48.665 14.9983 53.6428 16.7876 57.5617C18.541 61.4403 21.4224 64.2317 24.6922 66.5775C28.0193 68.9387 32.1801 70.2048 36.0212 72.1897C39.8479 70.1915 43.9959 68.9455 47.3078 66.5288C50.5785 64.1616 53.5359 61.4474 55.269 57.5274C56.9949 53.5938 57.7731 48.7485 57.7731 43.0808C57.7729 37.6091 57.8152 31.8035 57.7454 26.268ZM24.2679 50.9343C27.2188 49.4028 30.1753 47.7184 32.4851 45.4904C30.9543 45.8665 29.7301 45.9081 28.464 45.894C28.6727 45.5598 29.0199 45.3509 29.2987 45.0798C31.2467 43.2554 33.4318 41.5152 34.4899 38.7507C33.7742 38.9944 32.8751 39.1967 31.9078 39.1967C33.8077 36.7594 35.3042 33.8991 36.0979 30.3686C36.1321 30.3686 36.174 30.3686 36.2088 30.3686C36.9883 33.9127 38.5123 36.7392 40.4043 39.1967C39.5555 39.1404 38.8455 39.1059 37.8654 38.7238C37.9065 39.1336 38.122 39.5233 38.3043 39.8785C39.2424 41.605 40.7522 42.9759 42.1588 44.3064C42.729 44.8356 43.3414 45.3027 43.8426 45.8937C42.2838 46.0332 41.5734 45.9078 39.8626 45.4545C40.4185 46.1162 41.1496 46.604 41.824 47.1395C43.6619 48.6435 45.8594 49.7645 48.0722 50.9338C48.2469 51.0249 48.5187 51.0866 48.5878 51.3172C46.752 51.575 44.7116 51.4355 42.7293 50.8014C40.3076 49.9668 38.0116 49.9173 36.3126 51.5048C34.4208 49.9801 32.5487 49.9592 29.5218 50.7595C27.7959 51.2963 25.541 51.5397 23.7248 51.3172C23.7881 51.067 24.0793 51.0322 24.2679 50.9343ZM30.9828 65.4301H30.5305V62.5544C30.4188 62.673 30.2726 62.7562 30.0918 62.8467C29.9257 62.9645 29.7722 63.042 29.6257 63.0972V62.673C29.8826 62.5411 30.0918 62.394 30.2872 62.2278C30.4808 62.0464 30.6127 61.8925 30.6903 61.74H30.9825L30.9828 65.4301ZM35.0052 64.6361C34.8943 64.9143 34.7407 65.1302 34.5459 65.2697C34.3363 65.416 34.0999 65.4927 33.8362 65.4927C33.5432 65.4927 33.3075 65.416 33.126 65.2482C32.946 65.0959 32.8333 64.8724 32.793 64.5733L33.2235 64.5314C33.2644 64.7408 33.3418 64.8928 33.4467 64.9842C33.5435 65.0886 33.6829 65.1239 33.8425 65.1239C33.9743 65.1239 34.1001 65.0886 34.2118 65.0258C34.3091 64.9632 34.3928 64.88 34.4614 64.7688C34.5323 64.6573 34.588 64.5181 34.6298 64.3432C34.6787 64.1621 34.6992 63.9815 34.6992 63.7868C34.6992 63.7588 34.6992 63.7311 34.6992 63.6829C34.6086 63.8426 34.4904 63.9606 34.3233 64.0446C34.1705 64.1352 33.9957 64.1838 33.8226 64.1838C33.5157 64.1838 33.2594 64.0655 33.0504 63.8491C32.8338 63.6193 32.7223 63.3341 32.7223 62.9724C32.7223 62.6102 32.8338 62.3042 33.0569 62.0742C33.2803 61.8509 33.5576 61.74 33.877 61.74C34.1281 61.74 34.3369 61.8028 34.5464 61.9205C34.7413 62.0462 34.8948 62.2341 35.0057 62.4853C35.0886 62.7216 35.152 63.0561 35.152 63.5154C35.1514 63.9815 35.0881 64.3576 35.0052 64.6361ZM38.4495 64.6573C38.3593 64.9216 38.2334 65.138 38.0532 65.2697C37.879 65.416 37.6491 65.4927 37.3838 65.4927C37.0299 65.4927 36.7448 65.3673 36.5433 65.11C36.2993 64.8106 36.1737 64.3092 36.1737 63.6193C36.1737 63.1736 36.2289 62.8266 36.3121 62.5678C36.4042 62.2977 36.5355 62.0951 36.7168 61.9624C36.8902 61.8028 37.1196 61.7397 37.3838 61.7397C37.58 61.7397 37.7534 61.7748 37.9065 61.8509C38.0532 61.9205 38.1788 62.0462 38.2753 62.1925C38.3734 62.3521 38.4422 62.5261 38.4979 62.7431C38.5534 62.9577 38.5811 63.2503 38.5811 63.6193C38.5813 64.0443 38.5327 64.399 38.4495 64.6573ZM42.0039 65.4301H39.5699C39.5699 65.3254 39.5837 65.2066 39.6256 65.1239C39.6886 64.9562 39.7917 64.7826 39.9311 64.629C40.0635 64.4618 40.2592 64.2875 40.5168 64.0653C40.9123 63.7311 41.1836 63.4874 41.3293 63.2856C41.4687 63.0972 41.5462 62.9229 41.5462 62.7431C41.5462 62.5678 41.4763 62.4157 41.3447 62.2977C41.2192 62.1723 41.052 62.1022 40.8425 62.1022C40.6267 62.1022 40.4527 62.1723 40.3204 62.3042C40.1956 62.4366 40.1265 62.6172 40.1265 62.8397L39.6531 62.7988C39.6941 62.4573 39.8064 62.1854 40.0143 62.0045C40.2238 61.8169 40.5011 61.74 40.8577 61.74C41.2116 61.74 41.4904 61.8305 41.6916 62.0257C41.8998 62.2278 42.0037 62.4707 42.0037 62.7562C42.0037 62.8957 41.977 63.0561 41.9139 63.1951C41.8522 63.3341 41.7476 63.4877 41.6144 63.6476C41.4763 63.801 41.2388 64.0098 40.9118 64.288C40.6419 64.5115 40.4674 64.6774 40.3907 64.7481C40.3201 64.8379 40.2524 64.9148 40.2032 65.0051H42.0034L42.0039 65.4301ZM38.2831 55.1673L38.4006 56.1429H34.1841L34.3089 55.1673H21.0875L22.7371 53.1419C24.1355 53.0649 26.8348 52.71 29.1462 51.8466C33.641 50.1617 36.3691 52.4734 36.3691 52.4734C38.5188 50.6702 41.2194 51.0455 43.7178 51.9657C46.0687 52.8289 49.6674 53.0934 49.6674 53.0934L51.218 55.1678L38.2831 55.1673Z" fill="#6A005F"/>
</svg>
